# xmcd
#
# Track frame offsets:
#	150
#	18875
#	43466
#	63605
#	84950
#	109219
#	130790
#	148545
#	179186
#	193033
#	207624
#	223961
#	247558
#
# Disc length: 3570 seconds
#
# Revision: 0
# Processed by: cddbd v1.5.2PL0 Copyright (c) Steve Scherf et al.
# Submitted via: EZCDAudioConverter 7.1.0.1
#
DISCID=c80df00d
DTITLE=群星 - 唱世纪Ⅰ 滚石辉煌30周年 CD3 - 天作之合3／世间情歌
DYEAR=2002
DGENRE=
TTITLE0=林忆莲／张国荣 - From Now On
TTITLE1=张国荣／陈淑桦 - 当真就好
TTITLE2=李心洁／谢祖武 - 你的好
TTITLE3=马兆骏／潘越云 - 这样也好
TTITLE4=莫文蔚／张洪量 - 广岛之恋
TTITLE5=杜德伟／顺子 - 真的想你
TTITLE6=苏慧伦／张震岳 - 希望你会懂
TTITLE7=新宝岛康乐队／陈升 - 欢聚歌
TTITLE8=周华健／苏慧伦 - Coffee、Tea Or Me 我爱你
TTITLE9=李心洁／锦锈二重唱／神秘女孩16／神秘女孩13 - 对面的男孩看过来
TTITLE10=任贤齐／光良／阿牛 - 浪花一朵朵
TTITLE11=陈升／刘若英 - 世间情歌
TTITLE12=杜德伟／苏慧伦 - 旧情复炽
EXTD=
EXTT0=
EXTT1=
EXTT2=
EXTT3=
EXTT4=
EXTT5=
EXTT6=
EXTT7=
EXTT8=
EXTT9=
EXTT10=
EXTT11=
EXTT12=
PLAYORDER=
